<?xml version="1.0" encoding="utf-8" standalone="no"?>
<!DOCTYPE svg PUBLIC "-//W3C//DTD SVG 1.1//EN"
  "http://www.w3.org/Graphics/SVG/1.1/DTD/svg11.dtd">
<svg xmlns:xlink="http://www.w3.org/1999/xlink" width="1072.047188pt" height="711.091875pt" viewBox="0 0 1072.047188 711.091875" xmlns="http://www.w3.org/2000/svg" version="1.1">
 <metadata>
  <rdf:RDF xmlns:dc="http://purl.org/dc/elements/1.1/" xmlns:cc="http://creativecommons.org/ns#" xmlns:rdf="http://www.w3.org/1999/02/22-rdf-syntax-ns#">
   <cc:Work>
    <dc:type rdf:resource="http://purl.org/dc/dcmitype/StillImage"/>
    <dc:date>2026-01-31T16:33:47.282186</dc:date>
    <dc:format>image/svg+xml</dc:format>
    <dc:creator>
     <cc:Agent>
      <dc:title>Matplotlib v3.10.8, https://matplotlib.org/</dc:title>
     </cc:Agent>
    </dc:creator>
   </cc:Work>
  </rdf:RDF>
 </metadata>
 <defs>
  <style type="text/css">*{stroke-linejoin: round; stroke-linecap: butt}</style>
 </defs>
 <g id="figure_1">
  <g id="patch_1">
   <path d="M 0 711.091875 
L 1072.047188 711.091875 
L 1072.047188 0 
L 0 0 
z
" style="fill: #ffffff"/>
  </g>
  <g id="axes_1">
   <g id="patch_2">
    <path d="M 44.267188 319.879375 
L 352.047187 319.879375 
L 352.047187 21.935625 
L 44.267188 21.935625 
z
" style="fill: #ffffff"/>
   </g>
   <g id="matplotlib.axis_1">
    <g id="xtick_1">
     <g id="line2d_1">
      <path d="M 120.434965 319.879375 
L 120.434965 21.935625 
" clip-path="url(#p62d7fc8ada)" style="fill: none; stroke: #cccccc; stroke-width: 0.8; stroke-linecap: round"/>
     </g>
     <g id="text_1">
      <!-- False -->
      <g style="fill: #262626" transform="translate(108.209184 334.037188) scale(0.1 -0.1)">
       <defs>
        <path id="ArialMT-46" d="M 525 0 
L 525 4581 
L 3616 4581 
L 3616 4041 
L 1131 4041 
L 1131 2622 
L 3281 2622 
L 3281 2081 
L 1131 2081 
L 1131 0 
L 525 0 
z
" transform="scale(0.015625)"/>
        <path id="ArialMT-61" d="M 2588 409 
Q 2275 144 1986 34 
Q 1697 -75 1366 -75 
Q 819 -75 525 192 
Q 231 459 231 875 
Q 231 1119 342 1320 
Q 453 1522 633 1644 
Q 813 1766 1038 1828 
Q 1203 1872 1538 1913 
Q 2219 1994 2541 2106 
Q 2544 2222 2544 2253 
Q 2544 2597 2384 2738 
Q 2169 2928 1744 2928 
Q 1347 2928 1158 2789 
Q 969 2650 878 2297 
L 328 2372 
Q 403 2725 575 2942 
Q 747 3159 1072 3276 
Q 1397 3394 1825 3394 
Q 2250 3394 2515 3294 
Q 2781 3194 2906 3042 
Q 3031 2891 3081 2659 
Q 3109 2516 3109 2141 
L 3109 1391 
Q 3109 606 3145 398 
Q 3181 191 3288 0 
L 2700 0 
Q 2613 175 2588 409 
z
M 2541 1666 
Q 2234 1541 1622 1453 
Q 1275 1403 1131 1340 
Q 988 1278 909 1158 
Q 831 1038 831 891 
Q 831 666 1001 516 
Q 1172 366 1500 366 
Q 1825 366 2078 508 
Q 2331 650 2450 897 
Q 2541 1088 2541 1459 
L 2541 1666 
z
" transform="scale(0.015625)"/>
        <path id="ArialMT-6c" d="M 409 0 
L 409 4581 
L 972 4581 
L 972 0 
L 409 0 
z
" transform="scale(0.015625)"/>
        <path id="ArialMT-73" d="M 197 991 
L 753 1078 
Q 800 744 1014 566 
Q 1228 388 1613 388 
Q 2000 388 2187 545 
Q 2375 703 2375 916 
Q 2375 1106 2209 1216 
Q 2094 1291 1634 1406 
Q 1016 1563 777 1677 
Q 538 1791 414 1992 
Q 291 2194 291 2438 
Q 291 2659 392 2848 
Q 494 3038 669 3163 
Q 800 3259 1026 3326 
Q 1253 3394 1513 3394 
Q 1903 3394 2198 3281 
Q 2494 3169 2634 2976 
Q 2775 2784 2828 2463 
L 2278 2388 
Q 2241 2644 2061 2787 
Q 1881 2931 1553 2931 
Q 1166 2931 1000 2803 
Q 834 2675 834 2503 
Q 834 2394 903 2306 
Q 972 2216 1119 2156 
Q 1203 2125 1616 2013 
Q 2213 1853 2448 1751 
Q 2684 1650 2818 1456 
Q 2953 1263 2953 975 
Q 2953 694 2789 445 
Q 2625 197 2315 61 
Q 2006 -75 1616 -75 
Q 969 -75 630 194 
Q 291 463 197 991 
z
" transform="scale(0.015625)"/>
        <path id="ArialMT-65" d="M 2694 1069 
L 3275 997 
Q 3138 488 2766 206 
Q 2394 -75 1816 -75 
Q 1088 -75 661 373 
Q 234 822 234 1631 
Q 234 2469 665 2931 
Q 1097 3394 1784 3394 
Q 2450 3394 2872 2941 
Q 3294 2488 3294 1666 
Q 3294 1616 3291 1516 
L 816 1516 
Q 847 969 1125 678 
Q 1403 388 1819 388 
Q 2128 388 2347 550 
Q 2566 713 2694 1069 
z
M 847 1978 
L 2700 1978 
Q 2663 2397 2488 2606 
Q 2219 2931 1791 2931 
Q 1403 2931 1139 2672 
Q 875 2413 847 1978 
z
" transform="scale(0.015625)"/>
       </defs>
       <use xlink:href="#ArialMT-46"/>
       <use xlink:href="#ArialMT-61" transform="translate(61.083984 0)"/>
       <use xlink:href="#ArialMT-6c" transform="translate(116.699219 0)"/>
       <use xlink:href="#ArialMT-73" transform="translate(138.916016 0)"/>
       <use xlink:href="#ArialMT-65" transform="translate(188.916016 0)"/>
      </g>
     </g>
    </g>
    <g id="xtick_2">
     <g id="line2d_2">
      <path d="M 275.87941 319.879375 
L 275.87941 21.935625 
" clip-path="url(#p62d7fc8ada)" style="fill: none; stroke: #cccccc; stroke-width: 0.8; stroke-linecap: round"/>
     </g>
     <g id="text_2">
      <!-- True -->
      <g style="fill: #262626" transform="translate(265.787222 334.037188) scale(0.1 -0.1)">
       <defs>
        <path id="ArialMT-54" d="M 1659 0 
L 1659 4041 
L 150 4041 
L 150 4581 
L 3781 4581 
L 3781 4041 
L 2266 4041 
L 2266 0 
L 1659 0 
z
" transform="scale(0.015625)"/>
        <path id="ArialMT-72" d="M 416 0 
L 416 3319 
L 922 3319 
L 922 2816 
Q 1116 3169 1280 3281 
Q 1444 3394 1641 3394 
Q 1925 3394 2219 3213 
L 2025 2691 
Q 1819 2813 1613 2813 
Q 1428 2813 1281 2702 
Q 1134 2591 1072 2394 
Q 978 2094 978 1738 
L 978 0 
L 416 0 
z
" transform="scale(0.015625)"/>
        <path id="ArialMT-75" d="M 2597 0 
L 2597 488 
Q 2209 -75 1544 -75 
Q 1250 -75 995 37 
Q 741 150 617 320 
Q 494 491 444 738 
Q 409 903 409 1263 
L 409 3319 
L 972 3319 
L 972 1478 
Q 972 1038 1006 884 
Q 1059 663 1231 536 
Q 1403 409 1656 409 
Q 1909 409 2131 539 
Q 2353 669 2445 892 
Q 2538 1116 2538 1541 
L 2538 3319 
L 3100 3319 
L 3100 0 
L 2597 0 
z
" transform="scale(0.015625)"/>
       </defs>
       <use xlink:href="#ArialMT-54"/>
       <use xlink:href="#ArialMT-72" transform="translate(57.333984 0)"/>
       <use xlink:href="#ArialMT-75" transform="translate(90.634766 0)"/>
       <use xlink:href="#ArialMT-65" transform="translate(146.25 0)"/>
      </g>
     </g>
    </g>
    <g id="text_3">
     <!-- Has Fraction -->
     <g style="fill: #262626" transform="translate(169.816562 347.1825) scale(0.1 -0.1)">
      <defs>
       <path id="ArialMT-48" d="M 513 0 
L 513 4581 
L 1119 4581 
L 1119 2700 
L 3500 2700 
L 3500 4581 
L 4106 4581 
L 4106 0 
L 3500 0 
L 3500 2159 
L 1119 2159 
L 1119 0 
L 513 0 
z
" transform="scale(0.015625)"/>
       <path id="ArialMT-20" transform="scale(0.015625)"/>
       <path id="ArialMT-63" d="M 2588 1216 
L 3141 1144 
Q 3050 572 2676 248 
Q 2303 -75 1759 -75 
Q 1078 -75 664 370 
Q 250 816 250 1647 
Q 250 2184 428 2587 
Q 606 2991 970 3192 
Q 1334 3394 1763 3394 
Q 2303 3394 2647 3120 
Q 2991 2847 3088 2344 
L 2541 2259 
Q 2463 2594 2264 2762 
Q 2066 2931 1784 2931 
Q 1359 2931 1093 2626 
Q 828 2322 828 1663 
Q 828 994 1084 691 
Q 1341 388 1753 388 
Q 2084 388 2306 591 
Q 2528 794 2588 1216 
z
" transform="scale(0.015625)"/>
       <path id="ArialMT-74" d="M 1650 503 
L 1731 6 
Q 1494 -44 1306 -44 
Q 1000 -44 831 53 
Q 663 150 594 308 
Q 525 466 525 972 
L 525 2881 
L 113 2881 
L 113 3319 
L 525 3319 
L 525 4141 
L 1084 4478 
L 1084 3319 
L 1650 3319 
L 1650 2881 
L 1084 2881 
L 1084 941 
Q 1084 700 1114 631 
Q 1144 563 1211 522 
Q 1278 481 1403 481 
Q 1497 481 1650 503 
z
" transform="scale(0.015625)"/>
       <path id="ArialMT-69" d="M 425 3934 
L 425 4581 
L 988 4581 
L 988 3934 
L 425 3934 
z
M 425 0 
L 425 3319 
L 988 3319 
L 988 0 
L 425 0 
z
" transform="scale(0.015625)"/>
       <path id="ArialMT-6f" d="M 213 1659 
Q 213 2581 725 3025 
Q 1153 3394 1769 3394 
Q 2453 3394 2887 2945 
Q 3322 2497 3322 1706 
Q 3322 1066 3130 698 
Q 2938 331 2570 128 
Q 2203 -75 1769 -75 
Q 1072 -75 642 372 
Q 213 819 213 1659 
z
M 791 1659 
Q 791 1022 1069 705 
Q 1347 388 1769 388 
Q 2188 388 2466 706 
Q 2744 1025 2744 1678 
Q 2744 2294 2464 2611 
Q 2184 2928 1769 2928 
Q 1347 2928 1069 2612 
Q 791 2297 791 1659 
z
" transform="scale(0.015625)"/>
       <path id="ArialMT-6e" d="M 422 0 
L 422 3319 
L 928 3319 
L 928 2847 
Q 1294 3394 1984 3394 
Q 2284 3394 2536 3286 
Q 2788 3178 2913 3003 
Q 3038 2828 3088 2588 
Q 3119 2431 3119 2041 
L 3119 0 
L 2556 0 
L 2556 2019 
Q 2556 2363 2490 2533 
Q 2425 2703 2258 2804 
Q 2091 2906 1866 2906 
Q 1506 2906 1245 2678 
Q 984 2450 984 1813 
L 984 0 
L 422 0 
z
" transform="scale(0.015625)"/>
      </defs>
      <use xlink:href="#ArialMT-48"/>
      <use xlink:href="#ArialMT-61" transform="translate(72.216797 0)"/>
      <use xlink:href="#ArialMT-73" transform="translate(127.832031 0)"/>
      <use xlink:href="#ArialMT-20" transform="translate(177.832031 0)"/>
      <use xlink:href="#ArialMT-46" transform="translate(205.615234 0)"/>
      <use xlink:href="#ArialMT-72" transform="translate(266.699219 0)"/>
      <use xlink:href="#ArialMT-61" transform="translate(300 0)"/>
      <use xlink:href="#ArialMT-63" transform="translate(355.615234 0)"/>
      <use xlink:href="#ArialMT-74" transform="translate(405.615234 0)"/>
      <use xlink:href="#ArialMT-69" transform="translate(433.398438 0)"/>
      <use xlink:href="#ArialMT-6f" transform="translate(455.615234 0)"/>
      <use xlink:href="#ArialMT-6e" transform="translate(511.230469 0)"/>
     </g>
    </g>
   </g>
   <g id="matplotlib.axis_2">
    <g id="ytick_1">
     <g id="line2d_3">
      <path d="M 44.267188 319.879375 
L 352.047187 319.879375 
" clip-path="url(#p62d7fc8ada)" style="fill: none; stroke: #cccccc; stroke-width: 0.8; stroke-linecap: round"/>
     </g>
     <g id="text_4">
      <!-- 0 -->
      <g style="fill: #262626" transform="translate(31.70625 323.458281) scale(0.1 -0.1)">
       <defs>
        <path id="ArialMT-30" d="M 266 2259 
Q 266 3072 433 3567 
Q 600 4063 929 4331 
Q 1259 4600 1759 4600 
Q 2128 4600 2406 4451 
Q 2684 4303 2865 4023 
Q 3047 3744 3150 3342 
Q 3253 2941 3253 2259 
Q 3253 1453 3087 958 
Q 2922 463 2592 192 
Q 2263 -78 1759 -78 
Q 1097 -78 719 397 
Q 266 969 266 2259 
z
M 844 2259 
Q 844 1131 1108 757 
Q 1372 384 1759 384 
Q 2147 384 2411 759 
Q 2675 1134 2675 2259 
Q 2675 3391 2411 3762 
Q 2147 4134 1753 4134 
Q 1366 4134 1134 3806 
Q 844 3388 844 2259 
z
" transform="scale(0.015625)"/>
       </defs>
       <use xlink:href="#ArialMT-30"/>
      </g>
     </g>
    </g>
    <g id="ytick_2">
     <g id="line2d_4">
      <path d="M 44.267188 260.290625 
L 352.047187 260.290625 
" clip-path="url(#p62d7fc8ada)" style="fill: none; stroke: #cccccc; stroke-width: 0.8; stroke-linecap: round"/>
     </g>
     <g id="text_5">
      <!-- 20 -->
      <g style="fill: #262626" transform="translate(26.145313 263.869531) scale(0.1 -0.1)">
       <defs>
        <path id="ArialMT-32" d="M 3222 541 
L 3222 0 
L 194 0 
Q 188 203 259 391 
Q 375 700 629 1000 
Q 884 1300 1366 1694 
Q 2113 2306 2375 2664 
Q 2638 3022 2638 3341 
Q 2638 3675 2398 3904 
Q 2159 4134 1775 4134 
Q 1369 4134 1125 3890 
Q 881 3647 878 3216 
L 300 3275 
Q 359 3922 746 4261 
Q 1134 4600 1788 4600 
Q 2447 4600 2831 4234 
Q 3216 3869 3216 3328 
Q 3216 3053 3103 2787 
Q 2991 2522 2730 2228 
Q 2469 1934 1863 1422 
Q 1356 997 1212 845 
Q 1069 694 975 541 
L 3222 541 
z
" transform="scale(0.015625)"/>
       </defs>
       <use xlink:href="#ArialMT-32"/>
       <use xlink:href="#ArialMT-30" transform="translate(55.615234 0)"/>
      </g>
     </g>
    </g>
    <g id="ytick_3">
     <g id="line2d_5">
      <path d="M 44.267188 200.701875 
L 352.047187 200.701875 
" clip-path="url(#p62d7fc8ada)" style="fill: none; stroke: #cccccc; stroke-width: 0.8; stroke-linecap: round"/>
     </g>
     <g id="text_6">
      <!-- 40 -->
      <g style="fill: #262626" transform="translate(26.145313 204.280781) scale(0.1 -0.1)">
       <defs>
        <path id="ArialMT-34" d="M 2069 0 
L 2069 1097 
L 81 1097 
L 81 1613 
L 2172 4581 
L 2631 4581 
L 2631 1613 
L 3250 1613 
L 3250 1097 
L 2631 1097 
L 2631 0 
L 2069 0 
z
M 2069 1613 
L 2069 3678 
L 634 1613 
L 2069 1613 
z
" transform="scale(0.015625)"/>
       </defs>
       <use xlink:href="#ArialMT-34"/>
       <use xlink:href="#ArialMT-30" transform="translate(55.615234 0)"/>
      </g>
     </g>
    </g>
    <g id="ytick_4">
     <g id="line2d_6">
      <path d="M 44.267188 141.113125 
L 352.047187 141.113125 
" clip-path="url(#p62d7fc8ada)" style="fill: none; stroke: #cccccc; stroke-width: 0.8; stroke-linecap: round"/>
     </g>
     <g id="text_7">
      <!-- 60 -->
      <g style="fill: #262626" transform="translate(26.145313 144.692031) scale(0.1 -0.1)">
       <defs>
        <path id="ArialMT-36" d="M 3184 3459 
L 2625 3416 
Q 2550 3747 2413 3897 
Q 2184 4138 1850 4138 
Q 1581 4138 1378 3988 
Q 1113 3794 959 3422 
Q 806 3050 800 2363 
Q 1003 2672 1297 2822 
Q 1591 2972 1913 2972 
Q 2475 2972 2870 2558 
Q 3266 2144 3266 1488 
Q 3266 1056 3080 686 
Q 2894 316 2569 119 
Q 2244 -78 1831 -78 
Q 1128 -78 684 439 
Q 241 956 241 2144 
Q 241 3472 731 4075 
Q 1159 4600 1884 4600 
Q 2425 4600 2770 4297 
Q 3116 3994 3184 3459 
z
M 888 1484 
Q 888 1194 1011 928 
Q 1134 663 1356 523 
Q 1578 384 1822 384 
Q 2178 384 2434 671 
Q 2691 959 2691 1453 
Q 2691 1928 2437 2201 
Q 2184 2475 1800 2475 
Q 1419 2475 1153 2201 
Q 888 1928 888 1484 
z
" transform="scale(0.015625)"/>
       </defs>
       <use xlink:href="#ArialMT-36"/>
       <use xlink:href="#ArialMT-30" transform="translate(55.615234 0)"/>
      </g>
     </g>
    </g>
    <g id="ytick_5">
     <g id="line2d_7">
      <path d="M 44.267188 81.524375 
L 352.047187 81.524375 
" clip-path="url(#p62d7fc8ada)" style="fill: none; stroke: #cccccc; stroke-width: 0.8; stroke-linecap: round"/>
     </g>
     <g id="text_8">
      <!-- 80 -->
      <g style="fill: #262626" transform="translate(26.145313 85.103281) scale(0.1 -0.1)">
       <defs>
        <path id="ArialMT-38" d="M 1131 2484 
Q 781 2613 612 2850 
Q 444 3088 444 3419 
Q 444 3919 803 4259 
Q 1163 4600 1759 4600 
Q 2359 4600 2725 4251 
Q 3091 3903 3091 3403 
Q 3091 3084 2923 2848 
Q 2756 2613 2416 2484 
Q 2838 2347 3058 2040 
Q 3278 1734 3278 1309 
Q 3278 722 2862 322 
Q 2447 -78 1769 -78 
Q 1091 -78 675 323 
Q 259 725 259 1325 
Q 259 1772 486 2073 
Q 713 2375 1131 2484 
z
M 1019 3438 
Q 1019 3113 1228 2906 
Q 1438 2700 1772 2700 
Q 2097 2700 2305 2904 
Q 2513 3109 2513 3406 
Q 2513 3716 2298 3927 
Q 2084 4138 1766 4138 
Q 1444 4138 1231 3931 
Q 1019 3725 1019 3438 
z
M 838 1322 
Q 838 1081 952 856 
Q 1066 631 1291 507 
Q 1516 384 1775 384 
Q 2178 384 2440 643 
Q 2703 903 2703 1303 
Q 2703 1709 2433 1975 
Q 2163 2241 1756 2241 
Q 1359 2241 1098 1978 
Q 838 1716 838 1322 
z
" transform="scale(0.015625)"/>
       </defs>
       <use xlink:href="#ArialMT-38"/>
       <use xlink:href="#ArialMT-30" transform="translate(55.615234 0)"/>
      </g>
     </g>
    </g>
    <g id="ytick_6">
     <g id="line2d_8">
      <path d="M 44.267188 21.935625 
L 352.047187 21.935625 
" clip-path="url(#p62d7fc8ada)" style="fill: none; stroke: #cccccc; stroke-width: 0.8; stroke-linecap: round"/>
     </g>
     <g id="text_9">
      <!-- 100 -->
      <g style="fill: #262626" transform="translate(20.584375 25.514531) scale(0.1 -0.1)">
       <defs>
        <path id="ArialMT-31" d="M 2384 0 
L 1822 0 
L 1822 3584 
Q 1619 3391 1289 3197 
Q 959 3003 697 2906 
L 697 3450 
Q 1169 3672 1522 3987 
Q 1875 4303 2022 4600 
L 2384 4600 
L 2384 0 
z
" transform="scale(0.015625)"/>
       </defs>
       <use xlink:href="#ArialMT-31"/>
       <use xlink:href="#ArialMT-30" transform="translate(55.615234 0)"/>
       <use xlink:href="#ArialMT-30" transform="translate(111.230469 0)"/>
      </g>
     </g>
    </g>
    <g id="text_10">
     <!-- Accuracy (%) -->
     <g style="fill: #262626" transform="translate(14.479688 200.633281) rotate(-90) scale(0.1 -0.1)">
      <defs>
       <path id="ArialMT-41" d="M -9 0 
L 1750 4581 
L 2403 4581 
L 4278 0 
L 3588 0 
L 3053 1388 
L 1138 1388 
L 634 0 
L -9 0 
z
M 1313 1881 
L 2866 1881 
L 2388 3150 
Q 2169 3728 2063 4100 
Q 1975 3659 1816 3225 
L 1313 1881 
z
" transform="scale(0.015625)"/>
       <path id="ArialMT-79" d="M 397 -1278 
L 334 -750 
Q 519 -800 656 -800 
Q 844 -800 956 -737 
Q 1069 -675 1141 -563 
Q 1194 -478 1313 -144 
Q 1328 -97 1363 -6 
L 103 3319 
L 709 3319 
L 1400 1397 
Q 1534 1031 1641 628 
Q 1738 1016 1872 1384 
L 2581 3319 
L 3144 3319 
L 1881 -56 
Q 1678 -603 1566 -809 
Q 1416 -1088 1222 -1217 
Q 1028 -1347 759 -1347 
Q 597 -1347 397 -1278 
z
" transform="scale(0.015625)"/>
       <path id="ArialMT-28" d="M 1497 -1347 
Q 1031 -759 709 28 
Q 388 816 388 1659 
Q 388 2403 628 3084 
Q 909 3875 1497 4659 
L 1900 4659 
Q 1522 4009 1400 3731 
Q 1209 3300 1100 2831 
Q 966 2247 966 1656 
Q 966 153 1900 -1347 
L 1497 -1347 
z
" transform="scale(0.015625)"/>
       <path id="ArialMT-25" d="M 372 3481 
Q 372 3972 619 4315 
Q 866 4659 1334 4659 
Q 1766 4659 2048 4351 
Q 2331 4044 2331 3447 
Q 2331 2866 2045 2552 
Q 1759 2238 1341 2238 
Q 925 2238 648 2547 
Q 372 2856 372 3481 
z
M 1350 4272 
Q 1141 4272 1002 4090 
Q 863 3909 863 3425 
Q 863 2984 1003 2804 
Q 1144 2625 1350 2625 
Q 1563 2625 1702 2806 
Q 1841 2988 1841 3469 
Q 1841 3913 1700 4092 
Q 1559 4272 1350 4272 
z
M 1353 -169 
L 3859 4659 
L 4316 4659 
L 1819 -169 
L 1353 -169 
z
M 3334 1075 
Q 3334 1569 3581 1911 
Q 3828 2253 4300 2253 
Q 4731 2253 5014 1945 
Q 5297 1638 5297 1041 
Q 5297 459 5011 145 
Q 4725 -169 4303 -169 
Q 3888 -169 3611 142 
Q 3334 453 3334 1075 
z
M 4316 1866 
Q 4103 1866 3964 1684 
Q 3825 1503 3825 1019 
Q 3825 581 3965 400 
Q 4106 219 4313 219 
Q 4528 219 4667 400 
Q 4806 581 4806 1063 
Q 4806 1506 4665 1686 
Q 4525 1866 4316 1866 
z
" transform="scale(0.015625)"/>
       <path id="ArialMT-29" d="M 791 -1347 
L 388 -1347 
Q 1322 153 1322 1656 
Q 1322 2244 1188 2822 
Q 1081 3291 891 3722 
Q 769 4003 388 4659 
L 791 4659 
Q 1378 3875 1659 3084 
Q 1900 2403 1900 1659 
Q 1900 816 1576 28 
Q 1253 -759 791 -1347 
z
" transform="scale(0.015625)"/>
      </defs>
      <use xlink:href="#ArialMT-41"/>
      <use xlink:href="#ArialMT-63" transform="translate(66.699219 0)"/>
      <use xlink:href="#ArialMT-63" transform="translate(116.699219 0)"/>
      <use xlink:href="#ArialMT-75" transform="translate(166.699219 0)"/>
      <use xlink:href="#ArialMT-72" transform="translate(222.314453 0)"/>
      <use xlink:href="#ArialMT-61" transform="translate(255.615234 0)"/>
      <use xlink:href="#ArialMT-63" transform="translate(311.230469 0)"/>
      <use xlink:href="#ArialMT-79" transform="translate(361.230469 0)"/>
      <use xlink:href="#ArialMT-20" transform="translate(411.230469 0)"/>
      <use xlink:href="#ArialMT-28" transform="translate(439.013672 0)"/>
      <use xlink:href="#ArialMT-25" transform="translate(472.314453 0)"/>
      <use xlink:href="#ArialMT-29" transform="translate(561.230469 0)"/>
     </g>
    </g>
   </g>
   <g id="patch_3">
    <path d="M 58.257188 319.879375 
L 182.612743 319.879375 
L 182.612743 189.677956 
L 58.257188 189.677956 
z
" clip-path="url(#p62d7fc8ada)" style="fill: #f08080; stroke: #ffffff; stroke-linejoin: miter"/>
   </g>
   <g id="patch_4">
    <path d="M 213.701632 319.879375 
L 338.057187 319.879375 
L 338.057187 208.835739 
L 213.701632 208.835739 
z
" clip-path="url(#p62d7fc8ada)" style="fill: #90ee90; stroke: #ffffff; stroke-linejoin: miter"/>
   </g>
   <g id="patch_5">
    <path d="M 44.267188 319.879375 
L 44.267188 21.935625 
" style="fill: none; stroke: #cccccc; stroke-width: 0.8; stroke-linejoin: miter; stroke-linecap: square"/>
   </g>
   <g id="patch_6">
    <path d="M 352.047187 319.879375 
L 352.047187 21.935625 
" style="fill: none; stroke: #cccccc; stroke-width: 0.8; stroke-linejoin: miter; stroke-linecap: square"/>
   </g>
   <g id="patch_7">
    <path d="M 44.267188 319.879375 
L 352.047187 319.879375 
" style="fill: none; stroke: #cccccc; stroke-width: 0.8; stroke-linejoin: miter; stroke-linecap: square"/>
   </g>
   <g id="patch_8">
    <path d="M 44.267188 21.935625 
L 352.047187 21.935625 
" style="fill: none; stroke: #cccccc; stroke-width: 0.8; stroke-linejoin: miter; stroke-linecap: square"/>
   </g>
   <g id="text_11">
    <!-- n=1618 -->
    <g style="fill: #262626" transform="translate(105.294575 181.930331) scale(0.09 -0.09)">
     <defs>
      <path id="ArialMT-3d" d="M 3381 2694 
L 356 2694 
L 356 3219 
L 3381 3219 
L 3381 2694 
z
M 3381 1303 
L 356 1303 
L 356 1828 
L 3381 1828 
L 3381 1303 
z
" transform="scale(0.015625)"/>
     </defs>
     <use xlink:href="#ArialMT-6e"/>
     <use xlink:href="#ArialMT-3d" transform="translate(55.615234 0)"/>
     <use xlink:href="#ArialMT-31" transform="translate(114.013672 0)"/>
     <use xlink:href="#ArialMT-36" transform="translate(169.628906 0)"/>
     <use xlink:href="#ArialMT-31" transform="translate(225.244141 0)"/>
     <use xlink:href="#ArialMT-38" transform="translate(280.859375 0)"/>
    </g>
   </g>
   <g id="text_12">
    <!-- n=542 -->
    <g style="fill: #262626" transform="translate(263.241441 201.088114) scale(0.09 -0.09)">
     <defs>
      <path id="ArialMT-35" d="M 266 1200 
L 856 1250 
Q 922 819 1161 601 
Q 1400 384 1738 384 
Q 2144 384 2425 690 
Q 2706 997 2706 1503 
Q 2706 1984 2436 2262 
Q 2166 2541 1728 2541 
Q 1456 2541 1237 2417 
Q 1019 2294 894 2097 
L 366 2166 
L 809 4519 
L 3088 4519 
L 3088 3981 
L 1259 3981 
L 1013 2750 
Q 1425 3038 1878 3038 
Q 2478 3038 2890 2622 
Q 3303 2206 3303 1553 
Q 3303 931 2941 478 
Q 2500 -78 1738 -78 
Q 1113 -78 717 272 
Q 322 622 266 1200 
z
" transform="scale(0.015625)"/>
     </defs>
     <use xlink:href="#ArialMT-6e"/>
     <use xlink:href="#ArialMT-3d" transform="translate(55.615234 0)"/>
     <use xlink:href="#ArialMT-35" transform="translate(114.013672 0)"/>
     <use xlink:href="#ArialMT-34" transform="translate(169.628906 0)"/>
     <use xlink:href="#ArialMT-32" transform="translate(225.244141 0)"/>
    </g>
   </g>
   <g id="text_13">
    <!-- Accuracy by Has Fraction -->
    <g style="fill: #262626" transform="translate(129.805 15.935625) scale(0.12 -0.12)">
     <defs>
      <path id="ArialMT-62" d="M 941 0 
L 419 0 
L 419 4581 
L 981 4581 
L 981 2947 
Q 1338 3394 1891 3394 
Q 2197 3394 2470 3270 
Q 2744 3147 2920 2923 
Q 3097 2700 3197 2384 
Q 3297 2069 3297 1709 
Q 3297 856 2875 390 
Q 2453 -75 1863 -75 
Q 1275 -75 941 416 
L 941 0 
z
M 934 1684 
Q 934 1088 1097 822 
Q 1363 388 1816 388 
Q 2184 388 2453 708 
Q 2722 1028 2722 1663 
Q 2722 2313 2464 2622 
Q 2206 2931 1841 2931 
Q 1472 2931 1203 2611 
Q 934 2291 934 1684 
z
" transform="scale(0.015625)"/>
     </defs>
     <use xlink:href="#ArialMT-41"/>
     <use xlink:href="#ArialMT-63" transform="translate(66.699219 0)"/>
     <use xlink:href="#ArialMT-63" transform="translate(116.699219 0)"/>
     <use xlink:href="#ArialMT-75" transform="translate(166.699219 0)"/>
     <use xlink:href="#ArialMT-72" transform="translate(222.314453 0)"/>
     <use xlink:href="#ArialMT-61" transform="translate(255.615234 0)"/>
     <use xlink:href="#ArialMT-63" transform="translate(311.230469 0)"/>
     <use xlink:href="#ArialMT-79" transform="translate(361.230469 0)"/>
     <use xlink:href="#ArialMT-20" transform="translate(411.230469 0)"/>
     <use xlink:href="#ArialMT-62" transform="translate(439.013672 0)"/>
     <use xlink:href="#ArialMT-79" transform="translate(494.628906 0)"/>
     <use xlink:href="#ArialMT-20" transform="translate(544.628906 0)"/>
     <use xlink:href="#ArialMT-48" transform="translate(572.412109 0)"/>
     <use xlink:href="#ArialMT-61" transform="translate(644.628906 0)"/>
     <use xlink:href="#ArialMT-73" transform="translate(700.244141 0)"/>
     <use xlink:href="#ArialMT-20" transform="translate(750.244141 0)"/>
     <use xlink:href="#ArialMT-46" transform="translate(778.027344 0)"/>
     <use xlink:href="#ArialMT-72" transform="translate(839.111328 0)"/>
     <use xlink:href="#ArialMT-61" transform="translate(872.412109 0)"/>
     <use xlink:href="#ArialMT-63" transform="translate(928.027344 0)"/>
     <use xlink:href="#ArialMT-74" transform="translate(978.027344 0)"/>
     <use xlink:href="#ArialMT-69" transform="translate(1005.810547 0)"/>
     <use xlink:href="#ArialMT-6f" transform="translate(1028.027344 0)"/>
     <use xlink:href="#ArialMT-6e" transform="translate(1083.642578 0)"/>
    </g>
   </g>
  </g>
  <g id="axes_2">
   <g id="patch_9">
    <path d="M 400.667188 319.879375 
L 708.447188 319.879375 
L 708.447188 21.935625 
L 400.667188 21.935625 
z
" style="fill: #ffffff"/>
   </g>
   <g id="matplotlib.axis_3">
    <g id="xtick_3">
     <g id="line2d_9">
      <path d="M 476.834965 319.879375 
L 476.834965 21.935625 
" clip-path="url(#p81859702e5)" style="fill: none; stroke: #cccccc; stroke-width: 0.8; stroke-linecap: round"/>
     </g>
     <g id="text_14">
      <!-- False -->
      <g style="fill: #262626" transform="translate(464.609184 334.037188) scale(0.1 -0.1)">
       <use xlink:href="#ArialMT-46"/>
       <use xlink:href="#ArialMT-61" transform="translate(61.083984 0)"/>
       <use xlink:href="#ArialMT-6c" transform="translate(116.699219 0)"/>
       <use xlink:href="#ArialMT-73" transform="translate(138.916016 0)"/>
       <use xlink:href="#ArialMT-65" transform="translate(188.916016 0)"/>
      </g>
     </g>
    </g>
    <g id="xtick_4">
     <g id="line2d_10">
      <path d="M 632.27941 319.879375 
L 632.27941 21.935625 
" clip-path="url(#p81859702e5)" style="fill: none; stroke: #cccccc; stroke-width: 0.8; stroke-linecap: round"/>
     </g>
     <g id="text_15">
      <!-- True -->
      <g style="fill: #262626" transform="translate(622.187222 334.037188) scale(0.1 -0.1)">
       <use xlink:href="#ArialMT-54"/>
       <use xlink:href="#ArialMT-72" transform="translate(57.333984 0)"/>
       <use xlink:href="#ArialMT-75" transform="translate(90.634766 0)"/>
       <use xlink:href="#ArialMT-65" transform="translate(146.25 0)"/>
      </g>
     </g>
    </g>
    <g id="text_16">
     <!-- Has Superscript -->
     <g style="fill: #262626" transform="translate(518.99 347.304375) scale(0.1 -0.1)">
      <defs>
       <path id="ArialMT-53" d="M 288 1472 
L 859 1522 
Q 900 1178 1048 958 
Q 1197 738 1509 602 
Q 1822 466 2213 466 
Q 2559 466 2825 569 
Q 3091 672 3220 851 
Q 3350 1031 3350 1244 
Q 3350 1459 3225 1620 
Q 3100 1781 2813 1891 
Q 2628 1963 1997 2114 
Q 1366 2266 1113 2400 
Q 784 2572 623 2826 
Q 463 3081 463 3397 
Q 463 3744 659 4045 
Q 856 4347 1234 4503 
Q 1613 4659 2075 4659 
Q 2584 4659 2973 4495 
Q 3363 4331 3572 4012 
Q 3781 3694 3797 3291 
L 3216 3247 
Q 3169 3681 2898 3903 
Q 2628 4125 2100 4125 
Q 1550 4125 1298 3923 
Q 1047 3722 1047 3438 
Q 1047 3191 1225 3031 
Q 1400 2872 2139 2705 
Q 2878 2538 3153 2413 
Q 3553 2228 3743 1945 
Q 3934 1663 3934 1294 
Q 3934 928 3725 604 
Q 3516 281 3123 101 
Q 2731 -78 2241 -78 
Q 1619 -78 1198 103 
Q 778 284 539 648 
Q 300 1013 288 1472 
z
" transform="scale(0.015625)"/>
       <path id="ArialMT-70" d="M 422 -1272 
L 422 3319 
L 934 3319 
L 934 2888 
Q 1116 3141 1344 3267 
Q 1572 3394 1897 3394 
Q 2322 3394 2647 3175 
Q 2972 2956 3137 2557 
Q 3303 2159 3303 1684 
Q 3303 1175 3120 767 
Q 2938 359 2589 142 
Q 2241 -75 1856 -75 
Q 1575 -75 1351 44 
Q 1128 163 984 344 
L 984 -1272 
L 422 -1272 
z
M 931 1641 
Q 931 1000 1190 694 
Q 1450 388 1819 388 
Q 2194 388 2461 705 
Q 2728 1022 2728 1688 
Q 2728 2322 2467 2637 
Q 2206 2953 1844 2953 
Q 1484 2953 1207 2617 
Q 931 2281 931 1641 
z
" transform="scale(0.015625)"/>
      </defs>
      <use xlink:href="#ArialMT-48"/>
      <use xlink:href="#ArialMT-61" transform="translate(72.216797 0)"/>
      <use xlink:href="#ArialMT-73" transform="translate(127.832031 0)"/>
      <use xlink:href="#ArialMT-20" transform="translate(177.832031 0)"/>
      <use xlink:href="#ArialMT-53" transform="translate(205.615234 0)"/>
      <use xlink:href="#ArialMT-75" transform="translate(272.314453 0)"/>
      <use xlink:href="#ArialMT-70" transform="translate(327.929688 0)"/>
      <use xlink:href="#ArialMT-65" transform="translate(383.544922 0)"/>
      <use xlink:href="#ArialMT-72" transform="translate(439.160156 0)"/>
      <use xlink:href="#ArialMT-73" transform="translate(472.460938 0)"/>
      <use xlink:href="#ArialMT-63" transform="translate(522.460938 0)"/>
      <use xlink:href="#ArialMT-72" transform="translate(572.460938 0)"/>
      <use xlink:href="#ArialMT-69" transform="translate(605.761719 0)"/>
      <use xlink:href="#ArialMT-70" transform="translate(627.978516 0)"/>
      <use xlink:href="#ArialMT-74" transform="translate(683.59375 0)"/>
     </g>
    </g>
   </g>
   <g id="matplotlib.axis_4">
    <g id="ytick_7">
     <g id="line2d_11">
      <path d="M 400.667188 319.879375 
L 708.447188 319.879375 
" clip-path="url(#p81859702e5)" style="fill: none; stroke: #cccccc; stroke-width: 0.8; stroke-linecap: round"/>
     </g>
     <g id="text_17">
      <!-- 0 -->
      <g style="fill: #262626" transform="translate(388.10625 323.458281) scale(0.1 -0.1)">
       <use xlink:href="#ArialMT-30"/>
      </g>
     </g>
    </g>
    <g id="ytick_8">
     <g id="line2d_12">
      <path d="M 400.667188 260.290625 
L 708.447188 260.290625 
" clip-path="url(#p81859702e5)" style="fill: none; stroke: #cccccc; stroke-width: 0.8; stroke-linecap: round"/>
     </g>
     <g id="text_18">
      <!-- 20 -->
      <g style="fill: #262626" transform="translate(382.545313 263.869531) scale(0.1 -0.1)">
       <use xlink:href="#ArialMT-32"/>
       <use xlink:href="#ArialMT-30" transform="translate(55.615234 0)"/>
      </g>
     </g>
    </g>
    <g id="ytick_9">
     <g id="line2d_13">
      <path d="M 400.667188 200.701875 
L 708.447188 200.701875 
" clip-path="url(#p81859702e5)" style="fill: none; stroke: #cccccc; stroke-width: 0.8; stroke-linecap: round"/>
     </g>
     <g id="text_19">
      <!-- 40 -->
      <g style="fill: #262626" transform="translate(382.545313 204.280781) scale(0.1 -0.1)">
       <use xlink:href="#ArialMT-34"/>
       <use xlink:href="#ArialMT-30" transform="translate(55.615234 0)"/>
      </g>
     </g>
    </g>
    <g id="ytick_10">
     <g id="line2d_14">
      <path d="M 400.667188 141.113125 
L 708.447188 141.113125 
" clip-path="url(#p81859702e5)" style="fill: none; stroke: #cccccc; stroke-width: 0.8; stroke-linecap: round"/>
     </g>
     <g id="text_20">
      <!-- 60 -->
      <g style="fill: #262626" transform="translate(382.545313 144.692031) scale(0.1 -0.1)">
       <use xlink:href="#ArialMT-36"/>
       <use xlink:href="#ArialMT-30" transform="translate(55.615234 0)"/>
      </g>
     </g>
    </g>
    <g id="ytick_11">
     <g id="line2d_15">
      <path d="M 400.667188 81.524375 
L 708.447188 81.524375 
" clip-path="url(#p81859702e5)" style="fill: none; stroke: #cccccc; stroke-width: 0.8; stroke-linecap: round"/>
     </g>
     <g id="text_21">
      <!-- 80 -->
      <g style="fill: #262626" transform="translate(382.545313 85.103281) scale(0.1 -0.1)">
       <use xlink:href="#ArialMT-38"/>
       <use xlink:href="#ArialMT-30" transform="translate(55.615234 0)"/>
      </g>
     </g>
    </g>
    <g id="ytick_12">
     <g id="line2d_16">
      <path d="M 400.667188 21.935625 
L 708.447188 21.935625 
" clip-path="url(#p81859702e5)" style="fill: none; stroke: #cccccc; stroke-width: 0.8; stroke-linecap: round"/>
     </g>
     <g id="text_22">
      <!-- 100 -->
      <g style="fill: #262626" transform="translate(376.984375 25.514531) scale(0.1 -0.1)">
       <use xlink:href="#ArialMT-31"/>
       <use xlink:href="#ArialMT-30" transform="translate(55.615234 0)"/>
       <use xlink:href="#ArialMT-30" transform="translate(111.230469 0)"/>
      </g>
     </g>
    </g>
    <g id="text_23">
     <!-- Accuracy (%) -->
     <g style="fill: #262626" transform="translate(370.879687 200.633281) rotate(-90) scale(0.1 -0.1)">
      <use xlink:href="#ArialMT-41"/>
      <use xlink:href="#ArialMT-63" transform="translate(66.699219 0)"/>
      <use xlink:href="#ArialMT-63" transform="translate(116.699219 0)"/>
      <use xlink:href="#ArialMT-75" transform="translate(166.699219 0)"/>
      <use xlink:href="#ArialMT-72" transform="translate(222.314453 0)"/>
      <use xlink:href="#ArialMT-61" transform="translate(255.615234 0)"/>
      <use xlink:href="#ArialMT-63" transform="translate(311.230469 0)"/>
      <use xlink:href="#ArialMT-79" transform="translate(361.230469 0)"/>
      <use xlink:href="#ArialMT-20" transform="translate(411.230469 0)"/>
      <use xlink:href="#ArialMT-28" transform="translate(439.013672 0)"/>
      <use xlink:href="#ArialMT-25" transform="translate(472.314453 0)"/>
      <use xlink:href="#ArialMT-29" transform="translate(561.230469 0)"/>
     </g>
    </g>
   </g>
   <g id="patch_10">
    <path d="M 414.657187 319.879375 
L 539.012743 319.879375 
L 539.012743 180.501289 
L 414.657187 180.501289 
z
" clip-path="url(#p81859702e5)" style="fill: #f08080; stroke: #ffffff; stroke-linejoin: miter"/>
   </g>
   <g id="patch_11">
    <path d="M 570.101632 319.879375 
L 694.457187 319.879375 
L 694.457187 243.218448 
L 570.101632 243.218448 
z
" clip-path="url(#p81859702e5)" style="fill: #90ee90; stroke: #ffffff; stroke-linejoin: miter"/>
   </g>
   <g id="patch_12">
    <path d="M 400.667188 319.879375 
L 400.667188 21.935625 
" style="fill: none; stroke: #cccccc; stroke-width: 0.8; stroke-linejoin: miter; stroke-linecap: square"/>
   </g>
   <g id="patch_13">
    <path d="M 708.447188 319.879375 
L 708.447188 21.935625 
" style="fill: none; stroke: #cccccc; stroke-width: 0.8; stroke-linejoin: miter; stroke-linecap: square"/>
   </g>
   <g id="patch_14">
    <path d="M 400.667187 319.879375 
L 708.447188 319.879375 
" style="fill: none; stroke: #cccccc; stroke-width: 0.8; stroke-linejoin: miter; stroke-linecap: square"/>
   </g>
   <g id="patch_15">
    <path d="M 400.667187 21.935625 
L 708.447188 21.935625 
" style="fill: none; stroke: #cccccc; stroke-width: 0.8; stroke-linejoin: miter; stroke-linecap: square"/>
   </g>
   <g id="text_24">
    <!-- n=1678 -->
    <g style="fill: #262626" transform="translate(461.694575 172.753664) scale(0.09 -0.09)">
     <defs>
      <path id="ArialMT-37" d="M 303 3981 
L 303 4522 
L 3269 4522 
L 3269 4084 
Q 2831 3619 2401 2847 
Q 1972 2075 1738 1259 
Q 1569 684 1522 0 
L 944 0 
Q 953 541 1156 1306 
Q 1359 2072 1739 2783 
Q 2119 3494 2547 3981 
L 303 3981 
z
" transform="scale(0.015625)"/>
     </defs>
     <use xlink:href="#ArialMT-6e"/>
     <use xlink:href="#ArialMT-3d" transform="translate(55.615234 0)"/>
     <use xlink:href="#ArialMT-31" transform="translate(114.013672 0)"/>
     <use xlink:href="#ArialMT-36" transform="translate(169.628906 0)"/>
     <use xlink:href="#ArialMT-37" transform="translate(225.244141 0)"/>
     <use xlink:href="#ArialMT-38" transform="translate(280.859375 0)"/>
    </g>
   </g>
   <g id="text_25">
    <!-- n=482 -->
    <g style="fill: #262626" transform="translate(619.641441 235.470823) scale(0.09 -0.09)">
     <use xlink:href="#ArialMT-6e"/>
     <use xlink:href="#ArialMT-3d" transform="translate(55.615234 0)"/>
     <use xlink:href="#ArialMT-34" transform="translate(114.013672 0)"/>
     <use xlink:href="#ArialMT-38" transform="translate(169.628906 0)"/>
     <use xlink:href="#ArialMT-32" transform="translate(225.244141 0)"/>
    </g>
   </g>
   <g id="text_26">
    <!-- Accuracy by Has Superscript -->
    <g style="fill: #262626" transform="translate(477.533125 15.935625) scale(0.12 -0.12)">
     <use xlink:href="#ArialMT-41"/>
     <use xlink:href="#ArialMT-63" transform="translate(66.699219 0)"/>
     <use xlink:href="#ArialMT-63" transform="translate(116.699219 0)"/>
     <use xlink:href="#ArialMT-75" transform="translate(166.699219 0)"/>
     <use xlink:href="#ArialMT-72" transform="translate(222.314453 0)"/>
     <use xlink:href="#ArialMT-61" transform="translate(255.615234 0)"/>
     <use xlink:href="#ArialMT-63" transform="translate(311.230469 0)"/>
     <use xlink:href="#ArialMT-79" transform="translate(361.230469 0)"/>
     <use xlink:href="#ArialMT-20" transform="translate(411.230469 0)"/>
     <use xlink:href="#ArialMT-62" transform="translate(439.013672 0)"/>
     <use xlink:href="#ArialMT-79" transform="translate(494.628906 0)"/>
     <use xlink:href="#ArialMT-20" transform="translate(544.628906 0)"/>
     <use xlink:href="#ArialMT-48" transform="translate(572.412109 0)"/>
     <use xlink:href="#ArialMT-61" transform="translate(644.628906 0)"/>
     <use xlink:href="#ArialMT-73" transform="translate(700.244141 0)"/>
     <use xlink:href="#ArialMT-20" transform="translate(750.244141 0)"/>
     <use xlink:href="#ArialMT-53" transform="translate(778.027344 0)"/>
     <use xlink:href="#ArialMT-75" transform="translate(844.726562 0)"/>
     <use xlink:href="#ArialMT-70" transform="translate(900.341797 0)"/>
     <use xlink:href="#ArialMT-65" transform="translate(955.957031 0)"/>
     <use xlink:href="#ArialMT-72" transform="translate(1011.572266 0)"/>
     <use xlink:href="#ArialMT-73" transform="translate(1044.873047 0)"/>
     <use xlink:href="#ArialMT-63" transform="translate(1094.873047 0)"/>
     <use xlink:href="#ArialMT-72" transform="translate(1144.873047 0)"/>
     <use xlink:href="#ArialMT-69" transform="translate(1178.173828 0)"/>
     <use xlink:href="#ArialMT-70" transform="translate(1200.390625 0)"/>
     <use xlink:href="#ArialMT-74" transform="translate(1256.005859 0)"/>
    </g>
   </g>
  </g>
  <g id="axes_3">
   <g id="patch_16">
    <path d="M 757.067188 319.879375 
L 1064.847188 319.879375 
L 1064.847188 21.935625 
L 757.067188 21.935625 
z
" style="fill: #ffffff"/>
   </g>
   <g id="matplotlib.axis_5">
    <g id="xtick_5">
     <g id="line2d_17">
      <path d="M 833.234965 319.879375 
L 833.234965 21.935625 
" clip-path="url(#p9b29b460cf)" style="fill: none; stroke: #cccccc; stroke-width: 0.8; stroke-linecap: round"/>
     </g>
     <g id="text_27">
      <!-- False -->
      <g style="fill: #262626" transform="translate(821.009184 334.037188) scale(0.1 -0.1)">
       <use xlink:href="#ArialMT-46"/>
       <use xlink:href="#ArialMT-61" transform="translate(61.083984 0)"/>
       <use xlink:href="#ArialMT-6c" transform="translate(116.699219 0)"/>
       <use xlink:href="#ArialMT-73" transform="translate(138.916016 0)"/>
       <use xlink:href="#ArialMT-65" transform="translate(188.916016 0)"/>
      </g>
     </g>
    </g>
    <g id="xtick_6">
     <g id="line2d_18">
      <path d="M 988.67941 319.879375 
L 988.67941 21.935625 
" clip-path="url(#p9b29b460cf)" style="fill: none; stroke: #cccccc; stroke-width: 0.8; stroke-linecap: round"/>
     </g>
     <g id="text_28">
      <!-- True -->
      <g style="fill: #262626" transform="translate(978.587222 334.037188) scale(0.1 -0.1)">
       <use xlink:href="#ArialMT-54"/>
       <use xlink:href="#ArialMT-72" transform="translate(57.333984 0)"/>
       <use xlink:href="#ArialMT-75" transform="translate(90.634766 0)"/>
       <use xlink:href="#ArialMT-65" transform="translate(146.25 0)"/>
      </g>
     </g>
    </g>
    <g id="text_29">
     <!-- Has Subscript -->
     <g style="fill: #262626" transform="translate(879.835312 347.304375) scale(0.1 -0.1)">
      <use xlink:href="#ArialMT-48"/>
      <use xlink:href="#ArialMT-61" transform="translate(72.216797 0)"/>
      <use xlink:href="#ArialMT-73" transform="translate(127.832031 0)"/>
      <use xlink:href="#ArialMT-20" transform="translate(177.832031 0)"/>
      <use xlink:href="#ArialMT-53" transform="translate(205.615234 0)"/>
      <use xlink:href="#ArialMT-75" transform="translate(272.314453 0)"/>
      <use xlink:href="#ArialMT-62" transform="translate(327.929688 0)"/>
      <use xlink:href="#ArialMT-73" transform="translate(383.544922 0)"/>
      <use xlink:href="#ArialMT-63" transform="translate(433.544922 0)"/>
      <use xlink:href="#ArialMT-72" transform="translate(483.544922 0)"/>
      <use xlink:href="#ArialMT-69" transform="translate(516.845703 0)"/>
      <use xlink:href="#ArialMT-70" transform="translate(539.0625 0)"/>
      <use xlink:href="#ArialMT-74" transform="translate(594.677734 0)"/>
     </g>
    </g>
   </g>
   <g id="matplotlib.axis_6">
    <g id="ytick_13">
     <g id="line2d_19">
      <path d="M 757.067188 319.879375 
L 1064.847188 319.879375 
" clip-path="url(#p9b29b460cf)" style="fill: none; stroke: #cccccc; stroke-width: 0.8; stroke-linecap: round"/>
     </g>
     <g id="text_30">
      <!-- 0 -->
      <g style="fill: #262626" transform="translate(744.50625 323.458281) scale(0.1 -0.1)">
       <use xlink:href="#ArialMT-30"/>
      </g>
     </g>
    </g>
    <g id="ytick_14">
     <g id="line2d_20">
      <path d="M 757.067188 260.290625 
L 1064.847188 260.290625 
" clip-path="url(#p9b29b460cf)" style="fill: none; stroke: #cccccc; stroke-width: 0.8; stroke-linecap: round"/>
     </g>
     <g id="text_31">
      <!-- 20 -->
      <g style="fill: #262626" transform="translate(738.945312 263.869531) scale(0.1 -0.1)">
       <use xlink:href="#ArialMT-32"/>
       <use xlink:href="#ArialMT-30" transform="translate(55.615234 0)"/>
      </g>
     </g>
    </g>
    <g id="ytick_15">
     <g id="line2d_21">
      <path d="M 757.067188 200.701875 
L 1064.847188 200.701875 
" clip-path="url(#p9b29b460cf)" style="fill: none; stroke: #cccccc; stroke-width: 0.8; stroke-linecap: round"/>
     </g>
     <g id="text_32">
      <!-- 40 -->
      <g style="fill: #262626" transform="translate(738.945312 204.280781) scale(0.1 -0.1)">
       <use xlink:href="#ArialMT-34"/>
       <use xlink:href="#ArialMT-30" transform="translate(55.615234 0)"/>
      </g>
     </g>
    </g>
    <g id="ytick_16">
     <g id="line2d_22">
      <path d="M 757.067188 141.113125 
L 1064.847188 141.113125 
" clip-path="url(#p9b29b460cf)" style="fill: none; stroke: #cccccc; stroke-width: 0.8; stroke-linecap: round"/>
     </g>
     <g id="text_33">
      <!-- 60 -->
      <g style="fill: #262626" transform="translate(738.945312 144.692031) scale(0.1 -0.1)">
       <use xlink:href="#ArialMT-36"/>
       <use xlink:href="#ArialMT-30" transform="translate(55.615234 0)"/>
      </g>
     </g>
    </g>
    <g id="ytick_17">
     <g id="line2d_23">
      <path d="M 757.067188 81.524375 
L 1064.847188 81.524375 
" clip-path="url(#p9b29b460cf)" style="fill: none; stroke: #cccccc; stroke-width: 0.8; stroke-linecap: round"/>
     </g>
     <g id="text_34">
      <!-- 80 -->
      <g style="fill: #262626" transform="translate(738.945312 85.103281) scale(0.1 -0.1)">
       <use xlink:href="#ArialMT-38"/>
       <use xlink:href="#ArialMT-30" transform="translate(55.615234 0)"/>
      </g>
     </g>
    </g>
    <g id="ytick_18">
     <g id="line2d_24">
      <path d="M 757.067188 21.935625 
L 1064.847188 21.935625 
" clip-path="url(#p9b29b460cf)" style="fill: none; stroke: #cccccc; stroke-width: 0.8; stroke-linecap: round"/>
     </g>
     <g id="text_35">
      <!-- 100 -->
      <g style="fill: #262626" transform="translate(733.384375 25.514531) scale(0.1 -0.1)">
       <use xlink:href="#ArialMT-31"/>
       <use xlink:href="#ArialMT-30" transform="translate(55.615234 0)"/>
       <use xlink:href="#ArialMT-30" transform="translate(111.230469 0)"/>
      </g>
     </g>
    </g>
    <g id="text_36">
     <!-- Accuracy (%) -->
     <g style="fill: #262626" transform="translate(727.279688 200.633281) rotate(-90) scale(0.1 -0.1)">
      <use xlink:href="#ArialMT-41"/>
      <use xlink:href="#ArialMT-63" transform="translate(66.699219 0)"/>
      <use xlink:href="#ArialMT-63" transform="translate(116.699219 0)"/>
      <use xlink:href="#ArialMT-75" transform="translate(166.699219 0)"/>
      <use xlink:href="#ArialMT-72" transform="translate(222.314453 0)"/>
      <use xlink:href="#ArialMT-61" transform="translate(255.615234 0)"/>
      <use xlink:href="#ArialMT-63" transform="translate(311.230469 0)"/>
      <use xlink:href="#ArialMT-79" transform="translate(361.230469 0)"/>
      <use xlink:href="#ArialMT-20" transform="translate(411.230469 0)"/>
      <use xlink:href="#ArialMT-28" transform="translate(439.013672 0)"/>
      <use xlink:href="#ArialMT-25" transform="translate(472.314453 0)"/>
      <use xlink:href="#ArialMT-29" transform="translate(561.230469 0)"/>
     </g>
    </g>
   </g>
   <g id="patch_17">
    <path d="M 771.057188 319.879375 
L 895.412743 319.879375 
L 895.412743 188.158443 
L 771.057188 188.158443 
z
" clip-path="url(#p9b29b460cf)" style="fill: #f08080; stroke: #ffffff; stroke-linejoin: miter"/>
   </g>
   <g id="patch_18">
    <path d="M 926.501632 319.879375 
L 1050.857188 319.879375 
L 1050.857188 256.983449 
L 926.501632 256.983449 
z
" clip-path="url(#p9b29b460cf)" style="fill: #90ee90; stroke: #ffffff; stroke-linejoin: miter"/>
   </g>
   <g id="patch_19">
    <path d="M 757.067188 319.879375 
L 757.067188 21.935625 
" style="fill: none; stroke: #cccccc; stroke-width: 0.8; stroke-linejoin: miter; stroke-linecap: square"/>
   </g>
   <g id="patch_20">
    <path d="M 1064.847188 319.879375 
L 1064.847188 21.935625 
" style="fill: none; stroke: #cccccc; stroke-width: 0.8; stroke-linejoin: miter; stroke-linecap: square"/>
   </g>
   <g id="patch_21">
    <path d="M 757.067188 319.879375 
L 1064.847188 319.879375 
" style="fill: none; stroke: #cccccc; stroke-width: 0.8; stroke-linejoin: miter; stroke-linecap: square"/>
   </g>
   <g id="patch_22">
    <path d="M 757.067188 21.935625 
L 1064.847188 21.935625 
" style="fill: none; stroke: #cccccc; stroke-width: 0.8; stroke-linejoin: miter; stroke-linecap: square"/>
   </g>
   <g id="text_37">
    <!-- n=1961 -->
    <g style="fill: #262626" transform="translate(818.094575 180.410818) scale(0.09 -0.09)">
     <defs>
      <path id="ArialMT-39" d="M 350 1059 
L 891 1109 
Q 959 728 1153 556 
Q 1347 384 1650 384 
Q 1909 384 2104 503 
Q 2300 622 2425 820 
Q 2550 1019 2634 1356 
Q 2719 1694 2719 2044 
Q 2719 2081 2716 2156 
Q 2547 1888 2255 1720 
Q 1963 1553 1622 1553 
Q 1053 1553 659 1965 
Q 266 2378 266 3053 
Q 266 3750 677 4175 
Q 1088 4600 1706 4600 
Q 2153 4600 2523 4359 
Q 2894 4119 3086 3673 
Q 3278 3228 3278 2384 
Q 3278 1506 3087 986 
Q 2897 466 2520 194 
Q 2144 -78 1638 -78 
Q 1100 -78 759 220 
Q 419 519 350 1059 
z
M 2653 3081 
Q 2653 3566 2395 3850 
Q 2138 4134 1775 4134 
Q 1400 4134 1122 3828 
Q 844 3522 844 3034 
Q 844 2597 1108 2323 
Q 1372 2050 1759 2050 
Q 2150 2050 2401 2323 
Q 2653 2597 2653 3081 
z
" transform="scale(0.015625)"/>
     </defs>
     <use xlink:href="#ArialMT-6e"/>
     <use xlink:href="#ArialMT-3d" transform="translate(55.615234 0)"/>
     <use xlink:href="#ArialMT-31" transform="translate(114.013672 0)"/>
     <use xlink:href="#ArialMT-39" transform="translate(169.628906 0)"/>
     <use xlink:href="#ArialMT-36" transform="translate(225.244141 0)"/>
     <use xlink:href="#ArialMT-31" transform="translate(280.859375 0)"/>
    </g>
   </g>
   <g id="text_38">
    <!-- n=199 -->
    <g style="fill: #262626" transform="translate(976.041441 249.235824) scale(0.09 -0.09)">
     <use xlink:href="#ArialMT-6e"/>
     <use xlink:href="#ArialMT-3d" transform="translate(55.615234 0)"/>
     <use xlink:href="#ArialMT-31" transform="translate(114.013672 0)"/>
     <use xlink:href="#ArialMT-39" transform="translate(169.628906 0)"/>
     <use xlink:href="#ArialMT-39" transform="translate(225.244141 0)"/>
    </g>
   </g>
   <g id="text_39">
    <!-- Accuracy by Has Subscript -->
    <g style="fill: #262626" transform="translate(839.2675 15.935625) scale(0.12 -0.12)">
     <use xlink:href="#ArialMT-41"/>
     <use xlink:href="#ArialMT-63" transform="translate(66.699219 0)"/>
     <use xlink:href="#ArialMT-63" transform="translate(116.699219 0)"/>
     <use xlink:href="#ArialMT-75" transform="translate(166.699219 0)"/>
     <use xlink:href="#ArialMT-72" transform="translate(222.314453 0)"/>
     <use xlink:href="#ArialMT-61" transform="translate(255.615234 0)"/>
     <use xlink:href="#ArialMT-63" transform="translate(311.230469 0)"/>
     <use xlink:href="#ArialMT-79" transform="translate(361.230469 0)"/>
     <use xlink:href="#ArialMT-20" transform="translate(411.230469 0)"/>
     <use xlink:href="#ArialMT-62" transform="translate(439.013672 0)"/>
     <use xlink:href="#ArialMT-79" transform="translate(494.628906 0)"/>
     <use xlink:href="#ArialMT-20" transform="translate(544.628906 0)"/>
     <use xlink:href="#ArialMT-48" transform="translate(572.412109 0)"/>
     <use xlink:href="#ArialMT-61" transform="translate(644.628906 0)"/>
     <use xlink:href="#ArialMT-73" transform="translate(700.244141 0)"/>
     <use xlink:href="#ArialMT-20" transform="translate(750.244141 0)"/>
     <use xlink:href="#ArialMT-53" transform="translate(778.027344 0)"/>
     <use xlink:href="#ArialMT-75" transform="translate(844.726562 0)"/>
     <use xlink:href="#ArialMT-62" transform="translate(900.341797 0)"/>
     <use xlink:href="#ArialMT-73" transform="translate(955.957031 0)"/>
     <use xlink:href="#ArialMT-63" transform="translate(1005.957031 0)"/>
     <use xlink:href="#ArialMT-72" transform="translate(1055.957031 0)"/>
     <use xlink:href="#ArialMT-69" transform="translate(1089.257812 0)"/>
     <use xlink:href="#ArialMT-70" transform="translate(1111.474609 0)"/>
     <use xlink:href="#ArialMT-74" transform="translate(1167.089844 0)"/>
    </g>
   </g>
  </g>
  <g id="axes_4">
   <g id="patch_23">
    <path d="M 44.267188 674.479375 
L 352.047187 674.479375 
L 352.047187 376.535625 
L 44.267188 376.535625 
z
" style="fill: #ffffff"/>
   </g>
   <g id="matplotlib.axis_7">
    <g id="xtick_7">
     <g id="line2d_25">
      <path d="M 120.434965 674.479375 
L 120.434965 376.535625 
" clip-path="url(#pa037fccb1b)" style="fill: none; stroke: #cccccc; stroke-width: 0.8; stroke-linecap: round"/>
     </g>
     <g id="text_40">
      <!-- False -->
      <g style="fill: #262626" transform="translate(108.209184 688.637188) scale(0.1 -0.1)">
       <use xlink:href="#ArialMT-46"/>
       <use xlink:href="#ArialMT-61" transform="translate(61.083984 0)"/>
       <use xlink:href="#ArialMT-6c" transform="translate(116.699219 0)"/>
       <use xlink:href="#ArialMT-73" transform="translate(138.916016 0)"/>
       <use xlink:href="#ArialMT-65" transform="translate(188.916016 0)"/>
      </g>
     </g>
    </g>
    <g id="xtick_8">
     <g id="line2d_26">
      <path d="M 275.87941 674.479375 
L 275.87941 376.535625 
" clip-path="url(#pa037fccb1b)" style="fill: none; stroke: #cccccc; stroke-width: 0.8; stroke-linecap: round"/>
     </g>
     <g id="text_41">
      <!-- True -->
      <g style="fill: #262626" transform="translate(265.787222 688.637188) scale(0.1 -0.1)">
       <use xlink:href="#ArialMT-54"/>
       <use xlink:href="#ArialMT-72" transform="translate(57.333984 0)"/>
       <use xlink:href="#ArialMT-75" transform="translate(90.634766 0)"/>
       <use xlink:href="#ArialMT-65" transform="translate(146.25 0)"/>
      </g>
     </g>
    </g>
    <g id="text_42">
     <!-- Has Square Root -->
     <g style="fill: #262626" transform="translate(159.804844 701.904375) scale(0.1 -0.1)">
      <defs>
       <path id="ArialMT-71" d="M 2538 -1272 
L 2538 353 
Q 2406 169 2170 47 
Q 1934 -75 1669 -75 
Q 1078 -75 651 397 
Q 225 869 225 1691 
Q 225 2191 398 2587 
Q 572 2984 901 3189 
Q 1231 3394 1625 3394 
Q 2241 3394 2594 2875 
L 2594 3319 
L 3100 3319 
L 3100 -1272 
L 2538 -1272 
z
M 803 1669 
Q 803 1028 1072 708 
Q 1341 388 1716 388 
Q 2075 388 2334 692 
Q 2594 997 2594 1619 
Q 2594 2281 2320 2615 
Q 2047 2950 1678 2950 
Q 1313 2950 1058 2639 
Q 803 2328 803 1669 
z
" transform="scale(0.015625)"/>
       <path id="ArialMT-52" d="M 503 0 
L 503 4581 
L 2534 4581 
Q 3147 4581 3465 4457 
Q 3784 4334 3975 4021 
Q 4166 3709 4166 3331 
Q 4166 2844 3850 2509 
Q 3534 2175 2875 2084 
Q 3116 1969 3241 1856 
Q 3506 1613 3744 1247 
L 4541 0 
L 3778 0 
L 3172 953 
Q 2906 1366 2734 1584 
Q 2563 1803 2427 1890 
Q 2291 1978 2150 2013 
Q 2047 2034 1813 2034 
L 1109 2034 
L 1109 0 
L 503 0 
z
M 1109 2559 
L 2413 2559 
Q 2828 2559 3062 2645 
Q 3297 2731 3419 2920 
Q 3541 3109 3541 3331 
Q 3541 3656 3305 3865 
Q 3069 4075 2559 4075 
L 1109 4075 
L 1109 2559 
z
" transform="scale(0.015625)"/>
      </defs>
      <use xlink:href="#ArialMT-48"/>
      <use xlink:href="#ArialMT-61" transform="translate(72.216797 0)"/>
      <use xlink:href="#ArialMT-73" transform="translate(127.832031 0)"/>
      <use xlink:href="#ArialMT-20" transform="translate(177.832031 0)"/>
      <use xlink:href="#ArialMT-53" transform="translate(205.615234 0)"/>
      <use xlink:href="#ArialMT-71" transform="translate(272.314453 0)"/>
      <use xlink:href="#ArialMT-75" transform="translate(327.929688 0)"/>
      <use xlink:href="#ArialMT-61" transform="translate(383.544922 0)"/>
      <use xlink:href="#ArialMT-72" transform="translate(439.160156 0)"/>
      <use xlink:href="#ArialMT-65" transform="translate(472.460938 0)"/>
      <use xlink:href="#ArialMT-20" transform="translate(528.076172 0)"/>
      <use xlink:href="#ArialMT-52" transform="translate(555.859375 0)"/>
      <use xlink:href="#ArialMT-6f" transform="translate(628.076172 0)"/>
      <use xlink:href="#ArialMT-6f" transform="translate(683.691406 0)"/>
      <use xlink:href="#ArialMT-74" transform="translate(739.306641 0)"/>
     </g>
    </g>
   </g>
   <g id="matplotlib.axis_8">
    <g id="ytick_19">
     <g id="line2d_27">
      <path d="M 44.267188 674.479375 
L 352.047187 674.479375 
" clip-path="url(#pa037fccb1b)" style="fill: none; stroke: #cccccc; stroke-width: 0.8; stroke-linecap: round"/>
     </g>
     <g id="text_43">
      <!-- 0 -->
      <g style="fill: #262626" transform="translate(31.70625 678.058281) scale(0.1 -0.1)">
       <use xlink:href="#ArialMT-30"/>
      </g>
     </g>
    </g>
    <g id="ytick_20">
     <g id="line2d_28">
      <path d="M 44.267188 614.890625 
L 352.047187 614.890625 
" clip-path="url(#pa037fccb1b)" style="fill: none; stroke: #cccccc; stroke-width: 0.8; stroke-linecap: round"/>
     </g>
     <g id="text_44">
      <!-- 20 -->
      <g style="fill: #262626" transform="translate(26.145313 618.469531) scale(0.1 -0.1)">
       <use xlink:href="#ArialMT-32"/>
       <use xlink:href="#ArialMT-30" transform="translate(55.615234 0)"/>
      </g>
     </g>
    </g>
    <g id="ytick_21">
     <g id="line2d_29">
      <path d="M 44.267188 555.301875 
L 352.047187 555.301875 
" clip-path="url(#pa037fccb1b)" style="fill: none; stroke: #cccccc; stroke-width: 0.8; stroke-linecap: round"/>
     </g>
     <g id="text_45">
      <!-- 40 -->
      <g style="fill: #262626" transform="translate(26.145313 558.880781) scale(0.1 -0.1)">
       <use xlink:href="#ArialMT-34"/>
       <use xlink:href="#ArialMT-30" transform="translate(55.615234 0)"/>
      </g>
     </g>
    </g>
    <g id="ytick_22">
     <g id="line2d_30">
      <path d="M 44.267188 495.713125 
L 352.047187 495.713125 
" clip-path="url(#pa037fccb1b)" style="fill: none; stroke: #cccccc; stroke-width: 0.8; stroke-linecap: round"/>
     </g>
     <g id="text_46">
      <!-- 60 -->
      <g style="fill: #262626" transform="translate(26.145313 499.292031) scale(0.1 -0.1)">
       <use xlink:href="#ArialMT-36"/>
       <use xlink:href="#ArialMT-30" transform="translate(55.615234 0)"/>
      </g>
     </g>
    </g>
    <g id="ytick_23">
     <g id="line2d_31">
      <path d="M 44.267188 436.124375 
L 352.047187 436.124375 
" clip-path="url(#pa037fccb1b)" style="fill: none; stroke: #cccccc; stroke-width: 0.8; stroke-linecap: round"/>
     </g>
     <g id="text_47">
      <!-- 80 -->
      <g style="fill: #262626" transform="translate(26.145313 439.703281) scale(0.1 -0.1)">
       <use xlink:href="#ArialMT-38"/>
       <use xlink:href="#ArialMT-30" transform="translate(55.615234 0)"/>
      </g>
     </g>
    </g>
    <g id="ytick_24">
     <g id="line2d_32">
      <path d="M 44.267188 376.535625 
L 352.047187 376.535625 
" clip-path="url(#pa037fccb1b)" style="fill: none; stroke: #cccccc; stroke-width: 0.8; stroke-linecap: round"/>
     </g>
     <g id="text_48">
      <!-- 100 -->
      <g style="fill: #262626" transform="translate(20.584375 380.114531) scale(0.1 -0.1)">
       <use xlink:href="#ArialMT-31"/>
       <use xlink:href="#ArialMT-30" transform="translate(55.615234 0)"/>
       <use xlink:href="#ArialMT-30" transform="translate(111.230469 0)"/>
      </g>
     </g>
    </g>
    <g id="text_49">
     <!-- Accuracy (%) -->
     <g style="fill: #262626" transform="translate(14.479688 555.233281) rotate(-90) scale(0.1 -0.1)">
      <use xlink:href="#ArialMT-41"/>
      <use xlink:href="#ArialMT-63" transform="translate(66.699219 0)"/>
      <use xlink:href="#ArialMT-63" transform="translate(116.699219 0)"/>
      <use xlink:href="#ArialMT-75" transform="translate(166.699219 0)"/>
      <use xlink:href="#ArialMT-72" transform="translate(222.314453 0)"/>
      <use xlink:href="#ArialMT-61" transform="translate(255.615234 0)"/>
      <use xlink:href="#ArialMT-63" transform="translate(311.230469 0)"/>
      <use xlink:href="#ArialMT-79" transform="translate(361.230469 0)"/>
      <use xlink:href="#ArialMT-20" transform="translate(411.230469 0)"/>
      <use xlink:href="#ArialMT-28" transform="translate(439.013672 0)"/>
      <use xlink:href="#ArialMT-25" transform="translate(472.314453 0)"/>
      <use xlink:href="#ArialMT-29" transform="translate(561.230469 0)"/>
     </g>
    </g>
   </g>
   <g id="patch_24">
    <path d="M 58.257188 674.479375 
L 182.612743 674.479375 
L 182.612743 546.601918 
L 58.257188 546.601918 
z
" clip-path="url(#pa037fccb1b)" style="fill: #f08080; stroke: #ffffff; stroke-linejoin: miter"/>
   </g>
   <g id="patch_25">
    <path d="M 213.701632 674.479375 
L 338.057187 674.479375 
L 338.057187 572.731584 
L 213.701632 572.731584 
z
" clip-path="url(#pa037fccb1b)" style="fill: #90ee90; stroke: #ffffff; stroke-linejoin: miter"/>
   </g>
   <g id="patch_26">
    <path d="M 44.267188 674.479375 
L 44.267188 376.535625 
" style="fill: none; stroke: #cccccc; stroke-width: 0.8; stroke-linejoin: miter; stroke-linecap: square"/>
   </g>
   <g id="patch_27">
    <path d="M 352.047187 674.479375 
L 352.047187 376.535625 
" style="fill: none; stroke: #cccccc; stroke-width: 0.8; stroke-linejoin: miter; stroke-linecap: square"/>
   </g>
   <g id="patch_28">
    <path d="M 44.267188 674.479375 
L 352.047187 674.479375 
" style="fill: none; stroke: #cccccc; stroke-width: 0.8; stroke-linejoin: miter; stroke-linecap: square"/>
   </g>
   <g id="patch_29">
    <path d="M 44.267188 376.535625 
L 352.047187 376.535625 
" style="fill: none; stroke: #cccccc; stroke-width: 0.8; stroke-linejoin: miter; stroke-linecap: square"/>
   </g>
   <g id="text_50">
    <!-- n=1955 -->
    <g style="fill: #262626" transform="translate(105.294575 538.854293) scale(0.09 -0.09)">
     <use xlink:href="#ArialMT-6e"/>
     <use xlink:href="#ArialMT-3d" transform="translate(55.615234 0)"/>
     <use xlink:href="#ArialMT-31" transform="translate(114.013672 0)"/>
     <use xlink:href="#ArialMT-39" transform="translate(169.628906 0)"/>
     <use xlink:href="#ArialMT-35" transform="translate(225.244141 0)"/>
     <use xlink:href="#ArialMT-35" transform="translate(280.859375 0)"/>
    </g>
   </g>
   <g id="text_51">
    <!-- n=205 -->
    <g style="fill: #262626" transform="translate(263.241441 564.983959) scale(0.09 -0.09)">
     <use xlink:href="#ArialMT-6e"/>
     <use xlink:href="#ArialMT-3d" transform="translate(55.615234 0)"/>
     <use xlink:href="#ArialMT-32" transform="translate(114.013672 0)"/>
     <use xlink:href="#ArialMT-30" transform="translate(169.628906 0)"/>
     <use xlink:href="#ArialMT-35" transform="translate(225.244141 0)"/>
    </g>
   </g>
   <g id="text_52">
    <!-- Accuracy by Has Square Root -->
    <g style="fill: #262626" transform="translate(117.790937 370.535625) scale(0.12 -0.12)">
     <use xlink:href="#ArialMT-41"/>
     <use xlink:href="#ArialMT-63" transform="translate(66.699219 0)"/>
     <use xlink:href="#ArialMT-63" transform="translate(116.699219 0)"/>
     <use xlink:href="#ArialMT-75" transform="translate(166.699219 0)"/>
     <use xlink:href="#ArialMT-72" transform="translate(222.314453 0)"/>
     <use xlink:href="#ArialMT-61" transform="translate(255.615234 0)"/>
     <use xlink:href="#ArialMT-63" transform="translate(311.230469 0)"/>
     <use xlink:href="#ArialMT-79" transform="translate(361.230469 0)"/>
     <use xlink:href="#ArialMT-20" transform="translate(411.230469 0)"/>
     <use xlink:href="#ArialMT-62" transform="translate(439.013672 0)"/>
     <use xlink:href="#ArialMT-79" transform="translate(494.628906 0)"/>
     <use xlink:href="#ArialMT-20" transform="translate(544.628906 0)"/>
     <use xlink:href="#ArialMT-48" transform="translate(572.412109 0)"/>
     <use xlink:href="#ArialMT-61" transform="translate(644.628906 0)"/>
     <use xlink:href="#ArialMT-73" transform="translate(700.244141 0)"/>
     <use xlink:href="#ArialMT-20" transform="translate(750.244141 0)"/>
     <use xlink:href="#ArialMT-53" transform="translate(778.027344 0)"/>
     <use xlink:href="#ArialMT-71" transform="translate(844.726562 0)"/>
     <use xlink:href="#ArialMT-75" transform="translate(900.341797 0)"/>
     <use xlink:href="#ArialMT-61" transform="translate(955.957031 0)"/>
     <use xlink:href="#ArialMT-72" transform="translate(1011.572266 0)"/>
     <use xlink:href="#ArialMT-65" transform="translate(1044.873047 0)"/>
     <use xlink:href="#ArialMT-20" transform="translate(1100.488281 0)"/>
     <use xlink:href="#ArialMT-52" transform="translate(1128.271484 0)"/>
     <use xlink:href="#ArialMT-6f" transform="translate(1200.488281 0)"/>
     <use xlink:href="#ArialMT-6f" transform="translate(1256.103516 0)"/>
     <use xlink:href="#ArialMT-74" transform="translate(1311.71875 0)"/>
    </g>
   </g>
  </g>
  <g id="axes_5">
   <g id="patch_30">
    <path d="M 400.667188 674.479375 
L 708.447188 674.479375 
L 708.447188 376.535625 
L 400.667188 376.535625 
z
" style="fill: #ffffff"/>
   </g>
   <g id="matplotlib.axis_9">
    <g id="xtick_9">
     <g id="line2d_33">
      <path d="M 476.834965 674.479375 
L 476.834965 376.535625 
" clip-path="url(#paf377209cf)" style="fill: none; stroke: #cccccc; stroke-width: 0.8; stroke-linecap: round"/>
     </g>
     <g id="text_53">
      <!-- False -->
      <g style="fill: #262626" transform="translate(464.609184 688.637188) scale(0.1 -0.1)">
       <use xlink:href="#ArialMT-46"/>
       <use xlink:href="#ArialMT-61" transform="translate(61.083984 0)"/>
       <use xlink:href="#ArialMT-6c" transform="translate(116.699219 0)"/>
       <use xlink:href="#ArialMT-73" transform="translate(138.916016 0)"/>
       <use xlink:href="#ArialMT-65" transform="translate(188.916016 0)"/>
      </g>
     </g>
    </g>
    <g id="xtick_10">
     <g id="line2d_34">
      <path d="M 632.27941 674.479375 
L 632.27941 376.535625 
" clip-path="url(#paf377209cf)" style="fill: none; stroke: #cccccc; stroke-width: 0.8; stroke-linecap: round"/>
     </g>
     <g id="text_54">
      <!-- True -->
      <g style="fill: #262626" transform="translate(622.187222 688.637188) scale(0.1 -0.1)">
       <use xlink:href="#ArialMT-54"/>
       <use xlink:href="#ArialMT-72" transform="translate(57.333984 0)"/>
       <use xlink:href="#ArialMT-75" transform="translate(90.634766 0)"/>
       <use xlink:href="#ArialMT-65" transform="translate(146.25 0)"/>
      </g>
     </g>
    </g>
    <g id="text_55">
     <!-- Has Matrix -->
     <g style="fill: #262626" transform="translate(530.666563 701.7825) scale(0.1 -0.1)">
      <defs>
       <path id="ArialMT-4d" d="M 475 0 
L 475 4581 
L 1388 4581 
L 2472 1338 
Q 2622 884 2691 659 
Q 2769 909 2934 1394 
L 4031 4581 
L 4847 4581 
L 4847 0 
L 4263 0 
L 4263 3834 
L 2931 0 
L 2384 0 
L 1059 3900 
L 1059 0 
L 475 0 
z
" transform="scale(0.015625)"/>
       <path id="ArialMT-78" d="M 47 0 
L 1259 1725 
L 138 3319 
L 841 3319 
L 1350 2541 
Q 1494 2319 1581 2169 
Q 1719 2375 1834 2534 
L 2394 3319 
L 3066 3319 
L 1919 1756 
L 3153 0 
L 2463 0 
L 1781 1031 
L 1600 1309 
L 728 0 
L 47 0 
z
" transform="scale(0.015625)"/>
      </defs>
      <use xlink:href="#ArialMT-48"/>
      <use xlink:href="#ArialMT-61" transform="translate(72.216797 0)"/>
      <use xlink:href="#ArialMT-73" transform="translate(127.832031 0)"/>
      <use xlink:href="#ArialMT-20" transform="translate(177.832031 0)"/>
      <use xlink:href="#ArialMT-4d" transform="translate(205.615234 0)"/>
      <use xlink:href="#ArialMT-61" transform="translate(288.916016 0)"/>
      <use xlink:href="#ArialMT-74" transform="translate(344.53125 0)"/>
      <use xlink:href="#ArialMT-72" transform="translate(372.314453 0)"/>
      <use xlink:href="#ArialMT-69" transform="translate(405.615234 0)"/>
      <use xlink:href="#ArialMT-78" transform="translate(427.832031 0)"/>
     </g>
    </g>
   </g>
   <g id="matplotlib.axis_10">
    <g id="ytick_25">
     <g id="line2d_35">
      <path d="M 400.667188 674.479375 
L 708.447188 674.479375 
" clip-path="url(#paf377209cf)" style="fill: none; stroke: #cccccc; stroke-width: 0.8; stroke-linecap: round"/>
     </g>
     <g id="text_56">
      <!-- 0 -->
      <g style="fill: #262626" transform="translate(388.10625 678.058281) scale(0.1 -0.1)">
       <use xlink:href="#ArialMT-30"/>
      </g>
     </g>
    </g>
    <g id="ytick_26">
     <g id="line2d_36">
      <path d="M 400.667188 614.890625 
L 708.447188 614.890625 
" clip-path="url(#paf377209cf)" style="fill: none; stroke: #cccccc; stroke-width: 0.8; stroke-linecap: round"/>
     </g>
     <g id="text_57">
      <!-- 20 -->
      <g style="fill: #262626" transform="translate(382.545313 618.469531) scale(0.1 -0.1)">
       <use xlink:href="#ArialMT-32"/>
       <use xlink:href="#ArialMT-30" transform="translate(55.615234 0)"/>
      </g>
     </g>
    </g>
    <g id="ytick_27">
     <g id="line2d_37">
      <path d="M 400.667188 555.301875 
L 708.447188 555.301875 
" clip-path="url(#paf377209cf)" style="fill: none; stroke: #cccccc; stroke-width: 0.8; stroke-linecap: round"/>
     </g>
     <g id="text_58">
      <!-- 40 -->
      <g style="fill: #262626" transform="translate(382.545313 558.880781) scale(0.1 -0.1)">
       <use xlink:href="#ArialMT-34"/>
       <use xlink:href="#ArialMT-30" transform="translate(55.615234 0)"/>
      </g>
     </g>
    </g>
    <g id="ytick_28">
     <g id="line2d_38">
      <path d="M 400.667188 495.713125 
L 708.447188 495.713125 
" clip-path="url(#paf377209cf)" style="fill: none; stroke: #cccccc; stroke-width: 0.8; stroke-linecap: round"/>
     </g>
     <g id="text_59">
      <!-- 60 -->
      <g style="fill: #262626" transform="translate(382.545313 499.292031) scale(0.1 -0.1)">
       <use xlink:href="#ArialMT-36"/>
       <use xlink:href="#ArialMT-30" transform="translate(55.615234 0)"/>
      </g>
     </g>
    </g>
    <g id="ytick_29">
     <g id="line2d_39">
      <path d="M 400.667188 436.124375 
L 708.447188 436.124375 
" clip-path="url(#paf377209cf)" style="fill: none; stroke: #cccccc; stroke-width: 0.8; stroke-linecap: round"/>
     </g>
     <g id="text_60">
      <!-- 80 -->
      <g style="fill: #262626" transform="translate(382.545313 439.703281) scale(0.1 -0.1)">
       <use xlink:href="#ArialMT-38"/>
       <use xlink:href="#ArialMT-30" transform="translate(55.615234 0)"/>
      </g>
     </g>
    </g>
    <g id="ytick_30">
     <g id="line2d_40">
      <path d="M 400.667188 376.535625 
L 708.447188 376.535625 
" clip-path="url(#paf377209cf)" style="fill: none; stroke: #cccccc; stroke-width: 0.8; stroke-linecap: round"/>
     </g>
     <g id="text_61">
      <!-- 100 -->
      <g style="fill: #262626" transform="translate(376.984375 380.114531) scale(0.1 -0.1)">
       <use xlink:href="#ArialMT-31"/>
       <use xlink:href="#ArialMT-30" transform="translate(55.615234 0)"/>
       <use xlink:href="#ArialMT-30" transform="translate(111.230469 0)"/>
      </g>
     </g>
    </g>
    <g id="text_62">
     <!-- Accuracy (%) -->
     <g style="fill: #262626" transform="translate(370.879687 555.233281) rotate(-90) scale(0.1 -0.1)">
      <use xlink:href="#ArialMT-41"/>
      <use xlink:href="#ArialMT-63" transform="translate(66.699219 0)"/>
      <use xlink:href="#ArialMT-63" transform="translate(116.699219 0)"/>
      <use xlink:href="#ArialMT-75" transform="translate(166.699219 0)"/>
      <use xlink:href="#ArialMT-72" transform="translate(222.314453 0)"/>
      <use xlink:href="#ArialMT-61" transform="translate(255.615234 0)"/>
      <use xlink:href="#ArialMT-63" transform="translate(311.230469 0)"/>
      <use xlink:href="#ArialMT-79" transform="translate(361.230469 0)"/>
      <use xlink:href="#ArialMT-20" transform="translate(411.230469 0)"/>
      <use xlink:href="#ArialMT-28" transform="translate(439.013672 0)"/>
      <use xlink:href="#ArialMT-25" transform="translate(472.314453 0)"/>
      <use xlink:href="#ArialMT-29" transform="translate(561.230469 0)"/>
     </g>
    </g>
   </g>
   <g id="patch_31">
    <path d="M 414.657187 674.479375 
L 539.012743 674.479375 
L 539.012743 545.05261 
L 414.657187 545.05261 
z
" clip-path="url(#paf377209cf)" style="fill: #f08080; stroke: #ffffff; stroke-linejoin: miter"/>
   </g>
   <g id="patch_32">
    <path d="M 570.101632 674.479375 
L 694.457187 674.479375 
L 694.457187 670.218779 
L 570.101632 670.218779 
z
" clip-path="url(#paf377209cf)" style="fill: #90ee90; stroke: #ffffff; stroke-linejoin: miter"/>
   </g>
   <g id="patch_33">
    <path d="M 400.667188 674.479375 
L 400.667188 376.535625 
" style="fill: none; stroke: #cccccc; stroke-width: 0.8; stroke-linejoin: miter; stroke-linecap: square"/>
   </g>
   <g id="patch_34">
    <path d="M 708.447188 674.479375 
L 708.447188 376.535625 
" style="fill: none; stroke: #cccccc; stroke-width: 0.8; stroke-linejoin: miter; stroke-linecap: square"/>
   </g>
   <g id="patch_35">
    <path d="M 400.667187 674.479375 
L 708.447188 674.479375 
" style="fill: none; stroke: #cccccc; stroke-width: 0.8; stroke-linejoin: miter; stroke-linecap: square"/>
   </g>
   <g id="patch_36">
    <path d="M 400.667187 376.535625 
L 708.447188 376.535625 
" style="fill: none; stroke: #cccccc; stroke-width: 0.8; stroke-linejoin: miter; stroke-linecap: square"/>
   </g>
   <g id="text_63">
    <!-- n=2090 -->
    <g style="fill: #262626" transform="translate(461.694575 537.304985) scale(0.09 -0.09)">
     <use xlink:href="#ArialMT-6e"/>
     <use xlink:href="#ArialMT-3d" transform="translate(55.615234 0)"/>
     <use xlink:href="#ArialMT-32" transform="translate(114.013672 0)"/>
     <use xlink:href="#ArialMT-30" transform="translate(169.628906 0)"/>
     <use xlink:href="#ArialMT-39" transform="translate(225.244141 0)"/>
     <use xlink:href="#ArialMT-30" transform="translate(280.859375 0)"/>
    </g>
   </g>
   <g id="text_64">
    <!-- n=70 -->
    <g style="fill: #262626" transform="translate(622.143863 662.471154) scale(0.09 -0.09)">
     <use xlink:href="#ArialMT-6e"/>
     <use xlink:href="#ArialMT-3d" transform="translate(55.615234 0)"/>
     <use xlink:href="#ArialMT-37" transform="translate(114.013672 0)"/>
     <use xlink:href="#ArialMT-30" transform="translate(169.628906 0)"/>
    </g>
   </g>
   <g id="text_65">
    <!-- Accuracy by Has Matrix -->
    <g style="fill: #262626" transform="translate(491.545 370.535625) scale(0.12 -0.12)">
     <use xlink:href="#ArialMT-41"/>
     <use xlink:href="#ArialMT-63" transform="translate(66.699219 0)"/>
     <use xlink:href="#ArialMT-63" transform="translate(116.699219 0)"/>
     <use xlink:href="#ArialMT-75" transform="translate(166.699219 0)"/>
     <use xlink:href="#ArialMT-72" transform="translate(222.314453 0)"/>
     <use xlink:href="#ArialMT-61" transform="translate(255.615234 0)"/>
     <use xlink:href="#ArialMT-63" transform="translate(311.230469 0)"/>
     <use xlink:href="#ArialMT-79" transform="translate(361.230469 0)"/>
     <use xlink:href="#ArialMT-20" transform="translate(411.230469 0)"/>
     <use xlink:href="#ArialMT-62" transform="translate(439.013672 0)"/>
     <use xlink:href="#ArialMT-79" transform="translate(494.628906 0)"/>
     <use xlink:href="#ArialMT-20" transform="translate(544.628906 0)"/>
     <use xlink:href="#ArialMT-48" transform="translate(572.412109 0)"/>
     <use xlink:href="#ArialMT-61" transform="translate(644.628906 0)"/>
     <use xlink:href="#ArialMT-73" transform="translate(700.244141 0)"/>
     <use xlink:href="#ArialMT-20" transform="translate(750.244141 0)"/>
     <use xlink:href="#ArialMT-4d" transform="translate(778.027344 0)"/>
     <use xlink:href="#ArialMT-61" transform="translate(861.328125 0)"/>
     <use xlink:href="#ArialMT-74" transform="translate(916.943359 0)"/>
     <use xlink:href="#ArialMT-72" transform="translate(944.726562 0)"/>
     <use xlink:href="#ArialMT-69" transform="translate(978.027344 0)"/>
     <use xlink:href="#ArialMT-78" transform="translate(1000.244141 0)"/>
    </g>
   </g>
  </g>
 </g>
 <defs>
  <clipPath id="p62d7fc8ada">
   <rect x="44.267188" y="21.935625" width="307.78" height="297.94375"/>
  </clipPath>
  <clipPath id="p81859702e5">
   <rect x="400.667188" y="21.935625" width="307.78" height="297.94375"/>
  </clipPath>
  <clipPath id="p9b29b460cf">
   <rect x="757.067188" y="21.935625" width="307.78" height="297.94375"/>
  </clipPath>
  <clipPath id="pa037fccb1b">
   <rect x="44.267188" y="376.535625" width="307.78" height="297.94375"/>
  </clipPath>
  <clipPath id="paf377209cf">
   <rect x="400.667188" y="376.535625" width="307.78" height="297.94375"/>
  </clipPath>
 </defs>
</svg>
